<svg xmlns="http://www.w3.org/2000/svg" viewBox="0 0 1024 1024" width="1024" height="1024">
  <rect width="1024" height="1024" rx="224" fill="#1e293b" stroke="#ffffff" stroke-opacity="0.1" stroke-width="24" />

  <filter id="drop-shadow" x="-20%" y="-20%" width="140%" height="140%">
    <feDropShadow dx="0" dy="16" stdDeviation="24" flood-color="#000000" flood-opacity="0.4" />
  </filter>

  <svg x="192" y="192" width="640" height="640" viewBox="0 0 256 256" filter="url(#drop-shadow)">
    <defs>
      <filter id="glow-branch" x="-20%" y="-20%" width="140%" height="140%">
        <feGaussianBlur in="SourceAlpha" stdDeviation="25" result="blur"/>
        <feComposite in="SourceAlpha" in2="blur" operator="out" result="edgeGlowAlpha"/>
        <feFlood flood-color="#a855f7" flood-opacity="1"/>
        <feComposite in2="edgeGlowAlpha" operator="in" result="edgeGlowColor"/>
        <feComposite in="edgeGlowColor" in2="SourceGraphic" operator="over"/>
      </filter>

      <filter id="glow-merge" x="-20%" y="-20%" width="140%" height="140%">
        <feGaussianBlur in="SourceAlpha" stdDeviation="25" result="blur"/>
        <feComposite in="SourceAlpha" in2="blur" operator="out" result="edgeGlowAlpha"/>
        <feFlood flood-color="#eab308" flood-opacity="1"/>
        <feComposite in2="edgeGlowAlpha" operator="in" result="edgeGlowColor"/>
        <feComposite in="edgeGlowColor" in2="SourceGraphic" operator="over"/>
      </filter>

      <filter id="glow-pr" x="-20%" y="-20%" width="140%" height="140%">
        <feGaussianBlur in="SourceAlpha" stdDeviation="25" result="blur"/>
        <feComposite in="SourceAlpha" in2="blur" operator="out" result="edgeGlowAlpha"/>
        <feFlood flood-color="#ef4444" flood-opacity="1"/>
        <feComposite in2="edgeGlowAlpha" operator="in" result="edgeGlowColor"/>
        <feComposite in="edgeGlowColor" in2="SourceGraphic" operator="over"/>
      </filter>
    </defs>

    <g transform="translate(0, 4)">
      <g transform="translate(0, 112)" color="#eab308">
        <polygon points="68,0 136,34 136,102 68,136 0,102 0,34" fill="#0f172a" filter="url(#glow-merge)"/>
        <svg x="32" y="32" width="72" height="72" viewBox="0 0 24 24" fill="none" stroke="currentColor" stroke-width="3" stroke-linecap="round" stroke-linejoin="round">
          <circle cx="18" cy="18" r="3"></circle>
          <circle cx="6" cy="6" r="3"></circle>
          <path d="M6 21V9a9 9 0 0 0 9 9"></path>
        </svg>
      </g>

      <g transform="translate(120, 112)" color="#ef4444">
        <polygon points="68,0 136,34 136,102 68,136 0,102 0,34" fill="#0f172a" filter="url(#glow-pr)"/>
        <svg x="32" y="32" width="72" height="72" viewBox="0 0 24 24" fill="none" stroke="currentColor" stroke-width="3" stroke-linecap="round" stroke-linejoin="round">
          <circle cx="18" cy="18" r="3"></circle>
          <circle cx="6" cy="6" r="3"></circle>
          <path d="M13 6h3a2 2 0 0 1 2 2v7"></path>
          <line x1="6" y1="9" x2="6" y2="21"></line>
        </svg>
      </g>

      <g transform="translate(64, 0)" color="#a855f7">
        <polygon points="68,0 136,34 136,102 68,136 0,102 0,34" fill="#0f172a" filter="url(#glow-branch)"/>
        <svg x="32" y="32" width="72" height="72" viewBox="0 0 24 24" fill="none" stroke="currentColor" stroke-width="3" stroke-linecap="round" stroke-linejoin="round">
          <line x1="6" y1="3" x2="6" y2="15"></line>
          <circle cx="18" cy="6" r="3"></circle>
          <circle cx="6" cy="18" r="3"></circle>
          <path d="M18 9a9 9 0 0 1-9 9"></path>
        </svg>
      </g>
    </g>
  </svg>
</svg>
