<svg xmlns="http://www.w3.org/2000/svg" viewBox="0 0 280 280" width="512" height="512">
  <defs>
    <!-- Inner Glow Filters -->
    <filter id="glow-branch" x="-20%" y="-20%" width="140%" height="140%">
      <feGaussianBlur in="SourceAlpha" stdDeviation="25" result="blur"/>
      <feComposite in="SourceAlpha" in2="blur" operator="out" result="edgeGlowAlpha"/>
      <feFlood flood-color="#a855f7" flood-opacity="1"/>
      <feComposite in2="edgeGlowAlpha" operator="in" result="edgeGlowColor"/>
      <feComposite in="edgeGlowColor" in2="SourceGraphic" operator="over"/>
    </filter>

    <filter id="glow-merge" x="-20%" y="-20%" width="140%" height="140%">
      <feGaussianBlur in="SourceAlpha" stdDeviation="25" result="blur"/>
      <feComposite in="SourceAlpha" in2="blur" operator="out" result="edgeGlowAlpha"/>
      <feFlood flood-color="#eab308" flood-opacity="1"/>
      <feComposite in2="edgeGlowAlpha" operator="in" result="edgeGlowColor"/>
      <feComposite in="edgeGlowColor" in2="SourceGraphic" operator="over"/>
    </filter>

    <filter id="glow-pr" x="-20%" y="-20%" width="140%" height="140%">
      <feGaussianBlur in="SourceAlpha" stdDeviation="25" result="blur"/>
      <feComposite in="SourceAlpha" in2="blur" operator="out" result="edgeGlowAlpha"/>
      <feFlood flood-color="#ef4444" flood-opacity="1"/>
      <feComposite in2="edgeGlowAlpha" operator="in" result="edgeGlowColor"/>
      <feComposite in="edgeGlowColor" in2="SourceGraphic" operator="over"/>
    </filter>
  </defs>

  <!-- Merge (Bottom Left) -->
  <g transform="translate(0, 126)" color="#eab308">
    <polygon points="68,0 136,34 136,102 68,136 0,102 0,34" fill="#0f172a" filter="url(#glow-merge)"/>
    <svg x="32" y="32" width="72" height="72" viewBox="0 0 24 24" fill="none" stroke="currentColor" stroke-width="3" stroke-linecap="round" stroke-linejoin="round">
      <circle cx="18" cy="18" r="3"></circle>
      <circle cx="6" cy="6" r="3"></circle>
      <path d="M6 21V9a9 9 0 0 0 9 9"></path>
    </svg>
  </g>

  <!-- PR (Bottom Right) -->
  <g transform="translate(144, 126)" color="#ef4444">
    <polygon points="68,0 136,34 136,102 68,136 0,102 0,34" fill="#0f172a" filter="url(#glow-pr)"/>
    <svg x="32" y="32" width="72" height="72" viewBox="0 0 24 24" fill="none" stroke="currentColor" stroke-width="3" stroke-linecap="round" stroke-linejoin="round">
      <circle cx="18" cy="18" r="3"></circle>
      <circle cx="6" cy="6" r="3"></circle>
      <path d="M13 6h3a2 2 0 0 1 2 2v7"></path>
      <line x1="6" y1="9" x2="6" y2="21"></line>
    </svg>
  </g>

  <!-- Branch (Top Center) - Highest Z-Index -->
  <g transform="translate(72, 17)" color="#a855f7">
    <polygon points="68,0 136,34 136,102 68,136 0,102 0,34" fill="#0f172a" filter="url(#glow-branch)"/>
    <svg x="32" y="32" width="72" height="72" viewBox="0 0 24 24" fill="none" stroke="currentColor" stroke-width="3" stroke-linecap="round" stroke-linejoin="round">
      <line x1="6" y1="3" x2="6" y2="15"></line>
      <circle cx="18" cy="6" r="3"></circle>
      <circle cx="6" cy="18" r="3"></circle>
      <path d="M18 9a9 9 0 0 1-9 9"></path>
    </svg>
  </g>
</svg>
